<svg width="108" height="18" viewBox="0 0 108 18" fill="none" xmlns="http://www.w3.org/2000/svg">
<path d="M14.0504 8.57317L15.583 10.9492L18.6739 6.15088V16.776H21.3327V1.32174H18.6173L14.0504 8.57317ZM6.58815 1.32174H3.89844V16.776H6.56758V6.15088L12.6207 15.5829L14.1636 13.176L6.58815 1.32174ZM37.3219 11.9829L39.7853 16.776H42.9893L34.9459 1.32174H32.0556L32.0504 1.32688L36.0824 9.51946H30.7287L32.1224 6.85031L30.667 3.9446L23.8887 16.776H26.887L29.4224 11.988L37.3219 11.9829ZM60.7476 1.32174H58.0784V8.82517L60.7476 11.4377V1.32174ZM47.875 1.32174H45.1647V16.776H47.8339V5.22517L58.7624 16.776H60.7476V14.8989L47.875 1.32174ZM79.3801 5.61088C78.1099 4.32517 76.1504 3.50231 73.9544 3.50231C70.447 3.50231 67.5516 5.6006 67.0887 8.32117H64.1521C64.5379 4.09374 68.971 0.982313 73.9904 0.982313C76.9733 0.982313 79.6579 2.06746 81.463 3.81088L79.3801 5.61088ZM73.7076 14.616C70.7813 14.616 68.287 13.068 67.3613 10.908H64.3681C65.3607 14.6366 69.2539 17.1206 73.8773 17.1206C74.9521 17.1206 76.1864 17.0177 77.2099 16.7709C79.5242 16.2103 82.0544 14.7446 82.0544 12.4303V8.32117H73.6819L73.6767 10.908H79.3801V12.0806C79.3801 13.3766 77.3899 14.1275 76.1761 14.3897C75.523 14.5337 74.6796 14.616 74.0059 14.616H73.7076ZM104.102 9.06174C104.102 4.45374 99.8076 0.879456 94.5361 0.879456C89.4293 0.879456 84.9447 4.28917 84.9447 8.81488C84.9447 13.0835 88.4676 16.5035 93.2093 17.0435V14.4617C90.103 13.9629 87.7579 11.7052 87.7579 8.9846C87.7579 5.89888 90.7767 3.39946 94.495 3.39946C98.2184 3.39946 101.232 5.90403 101.232 8.9846C101.232 11.6846 98.923 13.9269 95.8527 14.4515V17.0383C100.414 16.4983 104.102 13.2069 104.102 9.06174Z" fill="#131313"/>
</svg>
